<svg width="50" height="50" viewBox="0 0 50 50" fill="none" xmlns="http://www.w3.org/2000/svg">
<path d="M47.6562 43.75H46.875V15.625C46.875 15.4178 46.7927 15.219 46.6462 15.0725C46.4997 14.926 46.3009 14.8437 46.0938 14.8437H33.8234C34.4422 13.0751 34.8495 11.2394 35.0367 9.37496H39.0625C39.217 9.37492 39.368 9.32908 39.4965 9.24324C39.6249 9.15739 39.725 9.03539 39.7841 8.89265C39.8432 8.74992 39.8587 8.59286 39.8286 8.44134C39.7985 8.28981 39.7241 8.15062 39.6148 8.04136L33.3648 1.79136C33.2183 1.6449 33.0197 1.56262 32.8125 1.56262C32.6053 1.56262 32.4067 1.6449 32.2602 1.79136L26.0102 8.04136C25.9009 8.15062 25.8265 8.28981 25.7964 8.44134C25.7663 8.59286 25.7818 8.74992 25.8409 8.89265C25.9 9.03539 26.0001 9.15739 26.1285 9.24324C26.257 9.32908 26.408 9.37492 26.5625 9.37496H29.0289C28.1166 11.4384 26.7997 13.298 25.1562 14.8437H3.90625C3.69905 14.8437 3.50034 14.926 3.35382 15.0725C3.20731 15.219 3.125 15.4178 3.125 15.625V43.75H2.34375C2.13655 43.75 1.93784 43.8323 1.79132 43.9788C1.64481 44.1253 1.5625 44.324 1.5625 44.5312V46.0937C1.5625 46.7153 1.80943 47.3114 2.24897 47.751C2.68851 48.1905 3.28465 48.4375 3.90625 48.4375H46.0938C46.7154 48.4375 47.3115 48.1905 47.751 47.751C48.1906 47.3114 48.4375 46.7153 48.4375 46.0937V44.5312C48.4375 44.324 48.3552 44.1253 48.2087 43.9788C48.0622 43.8323 47.8634 43.75 47.6562 43.75ZM30.9188 8.86011C30.9616 8.74212 30.9753 8.61555 30.9588 8.49111C30.9423 8.36668 30.8961 8.24805 30.8241 8.14527C30.752 8.04249 30.6563 7.95858 30.5449 7.90065C30.4336 7.84271 30.3099 7.81246 30.1844 7.81246H28.4484L32.8125 3.44839L37.1766 7.81246H34.3172C34.1186 7.81202 33.9273 7.88722 33.7822 8.02276C33.6371 8.1583 33.549 8.34401 33.5359 8.54214C33.1772 13.6981 31.0525 18.5729 27.5197 22.3455C23.987 26.118 19.262 28.5578 14.1406 29.2539L11.7188 29.5757V21.0085C15.8095 21.3765 19.9076 20.3857 23.3784 18.1896C26.8493 15.9934 29.4995 12.7144 30.9188 8.86011ZM4.6875 16.4062H23.2258C19.7399 18.8697 15.4546 19.9312 11.2219 19.3796L11.0437 19.3546C10.9331 19.3395 10.8205 19.3482 10.7136 19.3802C10.6066 19.4122 10.5077 19.4667 10.4236 19.5402C10.3395 19.6136 10.2721 19.7042 10.226 19.8059C10.1799 19.9076 10.1561 20.018 10.1562 20.1296V30.4687C10.1562 30.6759 10.2386 30.8746 10.3851 31.0211C10.5316 31.1676 10.7303 31.25 10.9375 31.25C10.972 31.2499 11.0064 31.2476 11.0406 31.2429L14.3438 30.8031C18.466 30.2409 22.3718 28.6188 25.6795 26.0953C28.9872 23.5719 31.5835 20.2334 33.2148 16.4062H45.3125V43.75H43.75V18.75C43.75 18.5428 43.6677 18.344 43.5212 18.1975C43.3747 18.051 43.1759 17.9687 42.9688 17.9687H34.375V19.5312H42.1875V43.75H7.8125V19.5312H9.375V17.9687H7.03125C6.82405 17.9687 6.62534 18.051 6.47882 18.1975C6.33231 18.344 6.25 18.5428 6.25 18.75V43.75H4.6875V16.4062ZM46.875 46.0937C46.875 46.3009 46.7927 46.4996 46.6462 46.6461C46.4997 46.7926 46.3009 46.875 46.0938 46.875H3.90625C3.69905 46.875 3.50034 46.7926 3.35382 46.6461C3.20731 46.4996 3.125 46.3009 3.125 46.0937V45.3125H46.875V46.0937Z" fill="white" style="fill:white;fill:white;fill-opacity:1;"/>
<path d="M9.375 42.9688H40.625V41.4062H37.5V23.4375C37.5 23.2303 37.4177 23.0316 37.2712 22.8851C37.1247 22.7386 36.926 22.6562 36.7188 22.6562H32.0312C31.824 22.6562 31.6253 22.7386 31.4788 22.8851C31.3323 23.0316 31.25 23.2303 31.25 23.4375V41.4062H28.125V29.6875C28.125 29.4803 28.0427 29.2816 27.8962 29.1351C27.7497 28.9886 27.551 28.9062 27.3438 28.9062H22.6562C22.449 28.9062 22.2503 28.9886 22.1038 29.1351C21.9573 29.2816 21.875 29.4803 21.875 29.6875V41.4062H18.75V33.5938C18.75 33.3865 18.6677 33.1878 18.5212 33.0413C18.3747 32.8948 18.176 32.8125 17.9688 32.8125H13.2812C13.074 32.8125 12.8753 32.8948 12.7288 33.0413C12.5823 33.1878 12.5 33.3865 12.5 33.5938V41.4062H9.375V42.9688ZM32.8125 24.2188H35.9375V41.4062H32.8125V24.2188ZM23.4375 30.4688H26.5625V41.4062H23.4375V30.4688ZM14.0625 34.375H17.1875V41.4062H14.0625V34.375Z" fill="white" style="fill:white;fill:white;fill-opacity:1;"/>
<path d="M21.0938 1.5625H22.6562V3.125H21.0938V1.5625Z" fill="white" style="fill:white;fill:white;fill-opacity:1;"/>
<path d="M22.6562 3.125H24.2188V4.6875H22.6562V3.125Z" fill="white" style="fill:white;fill:white;fill-opacity:1;"/>
<path d="M21.0938 4.6875H22.6562V6.25H21.0938V4.6875Z" fill="white" style="fill:white;fill:white;fill-opacity:1;"/>
<path d="M19.5312 3.125H21.0938V4.6875H19.5312V3.125Z" fill="white" style="fill:white;fill:white;fill-opacity:1;"/>
<path d="M17.9688 7.8125H19.5312V9.375H17.9688V7.8125Z" fill="white" style="fill:white;fill:white;fill-opacity:1;"/>
<path d="M46.875 9.375H48.4375V10.9375H46.875V9.375Z" fill="white" style="fill:white;fill:white;fill-opacity:1;"/>
<path d="M45.3125 10.9375H46.875V12.5H45.3125V10.9375Z" fill="white" style="fill:white;fill:white;fill-opacity:1;"/>
<path d="M43.75 9.375H45.3125V10.9375H43.75V9.375Z" fill="white" style="fill:white;fill:white;fill-opacity:1;"/>
<path d="M45.3125 7.8125H46.875V9.375H45.3125V7.8125Z" fill="white" style="fill:white;fill:white;fill-opacity:1;"/>
<path d="M42.1875 4.6875H43.75V6.25H42.1875V4.6875Z" fill="white" style="fill:white;fill:white;fill-opacity:1;"/>
<path d="M14.0625 25H12.5V27.3437C12.5 27.5509 12.5823 27.7496 12.7288 27.8962C12.8753 28.0427 13.074 28.125 13.2812 28.125C15.951 28.0087 18.5357 27.1517 20.7461 25.65L19.8789 24.35C18.138 25.5217 16.1452 26.2663 14.0625 26.5234V25Z" fill="white" style="fill:white;fill:white;fill-opacity:1;"/>
<path d="M12.5 21.875H14.0625V23.4375H12.5V21.875Z" fill="white" style="fill:white;fill:white;fill-opacity:1;"/>
</svg>
