<svg width="80" height="80" viewBox="0 0 80 80" fill="none" xmlns="http://www.w3.org/2000/svg">
<rect width="80" height="80" fill="#1E1E1E" style="fill:#1E1E1E;fill:color(display-p3 0.1176 0.1176 0.1176);fill-opacity:1;"/>
<g id="01_Home page" clip-path="url(#clip0_0_1)">
<rect width="1440" height="7230" transform="translate(-960 -1451)" fill="white" style="fill:white;fill:white;fill-opacity:1;"/>
<g id="Our Services">
<g id="Services">
<g id="Digital Marketing">
<g id="Rectangle 200" filter="url(#filter0_d_0_1)">
<rect x="-25" y="-30" width="370" height="300" rx="10" fill="white" style="fill:white;fill:white;fill-opacity:1;"/>
</g>
<g id="Icons/digital-marketing">
<g id="Icons/digital-marketing_2">
<g id="media-monitor-screen-Digital Marketing">
<path id="Vector" d="M6.25 20H73.75C74.413 20 75.0489 20.2634 75.5178 20.7322C75.9866 21.2011 76.25 21.837 76.25 22.5V60H3.75V22.5C3.75 21.837 4.01339 21.2011 4.48223 20.7322C4.95107 20.2634 5.58696 20 6.25 20Z" fill="#3780EA" style="fill:#3780EA;fill:color(display-p3 0.2157 0.5020 0.9176);fill-opacity:1;"/>
<path id="Vector_2" d="M8.75 35H41.25V55H8.75V35Z" fill="#896FF7" style="fill:#896FF7;fill:color(display-p3 0.5373 0.4353 0.9686);fill-opacity:1;"/>
<path id="Vector_3" d="M52.5 71.25V76.25H27.5V71.25H36.25H43.75H52.5Z" fill="#E8E5FB" style="fill:#E8E5FB;fill:color(display-p3 0.9098 0.8980 0.9843);fill-opacity:1;"/>
<path id="Vector_4" d="M36.25 63.75H43.75V71.25H36.25V63.75Z" fill="#8E95A3" style="fill:#8E95A3;fill:color(display-p3 0.5569 0.5843 0.6392);fill-opacity:1;"/>
<path id="Vector_5" d="M76.25 61.25V62.5C76.248 63.1624 75.984 63.7972 75.5156 64.2656C75.0472 64.734 74.4124 64.998 73.75 65H6.25C5.58757 64.998 4.95283 64.734 4.48442 64.2656C4.01601 63.7972 3.75198 63.1624 3.75 62.5V60H76.25V61.25Z" fill="#E8E5FB" style="fill:#E8E5FB;fill:color(display-p3 0.9098 0.8980 0.9843);fill-opacity:1;"/>
<path id="Vector_6" d="M10 7.5H35V27.5H10V7.5Z" fill="#78B9EB" style="fill:#78B9EB;fill:color(display-p3 0.4706 0.7255 0.9216);fill-opacity:1;"/>
<path id="Vector_7" d="M41.25 35L25 45L8.75 35H41.25Z" fill="#B9B1F1" style="fill:#B9B1F1;fill:color(display-p3 0.7255 0.6941 0.9451);fill-opacity:1;"/>
<path id="Vector_8" d="M45 8.75H53.75V18.75H45V8.75Z" fill="#E8E5FB" style="fill:#E8E5FB;fill:color(display-p3 0.9098 0.8980 0.9843);fill-opacity:1;"/>
<path id="Vector_9" d="M51.25 18.75L50 27.5H46.25V18.75H51.25Z" fill="#C7BEC5" style="fill:#C7BEC5;fill:color(display-p3 0.7804 0.7451 0.7725);fill-opacity:1;"/>
<path id="Vector_10" d="M74.2625 11.9875C74.4975 12.2167 74.6839 12.4909 74.8106 12.7937C74.9373 13.0965 75.0017 13.4218 75 13.75C74.998 14.4125 74.734 15.0472 74.2656 15.5156C73.7972 15.984 73.1624 16.2481 72.5 16.25H70V11.25H72.5C72.8283 11.2483 73.1535 11.3127 73.4563 11.4394C73.7591 11.5661 74.0333 11.7525 74.2625 11.9875Z" fill="#EC455A" style="fill:#EC455A;fill:color(display-p3 0.9255 0.2706 0.3529);fill-opacity:1;"/>
<path id="Vector_11" d="M70 3.75V23.75L53.75 18.75V8.75L70 3.75Z" fill="#F6CC4F" style="fill:#F6CC4F;fill:color(display-p3 0.9647 0.8000 0.3098);fill-opacity:1;"/>
<path id="Vector_12" d="M41.25 11.25H45V16.25H41.25V11.25Z" fill="#EC455A" style="fill:#EC455A;fill:color(display-p3 0.9255 0.2706 0.3529);fill-opacity:1;"/>
<path id="Vector_13" d="M46.25 32.5H68.75V47.5H46.25V32.5Z" fill="#9E2849" style="fill:#9E2849;fill:color(display-p3 0.6196 0.1569 0.2863);fill-opacity:1;"/>
<path id="Vector_14" d="M71.25 37.5V52.5H50V47.5V37.5H68.75H71.25Z" fill="#EC455A" style="fill:#EC455A;fill:color(display-p3 0.9255 0.2706 0.3529);fill-opacity:1;"/>
<g id="Group">
<path id="Vector_15" d="M53.75 41.25H56.25V43.75H53.75V41.25Z" fill="#E8E5FB" style="fill:#E8E5FB;fill:color(display-p3 0.9098 0.8980 0.9843);fill-opacity:1;"/>
<path id="Vector_16" d="M58.75 41.25H67.5V43.75H58.75V41.25Z" fill="#E8E5FB" style="fill:#E8E5FB;fill:color(display-p3 0.9098 0.8980 0.9843);fill-opacity:1;"/>
<path id="Vector_17" d="M53.75 46.25H58.75V48.75H53.75V46.25Z" fill="#E8E5FB" style="fill:#E8E5FB;fill:color(display-p3 0.9098 0.8980 0.9843);fill-opacity:1;"/>
<path id="Vector_18" d="M61.25 46.25H67.5V48.75H61.25V46.25Z" fill="#E8E5FB" style="fill:#E8E5FB;fill:color(display-p3 0.9098 0.8980 0.9843);fill-opacity:1;"/>
</g>
<path id="Vector_19" d="M36.25 65H43.75V67.5H36.25V65Z" fill="#636263" style="fill:#636263;fill:color(display-p3 0.3882 0.3843 0.3882);fill-opacity:1;"/>
<path id="Vector_20" d="M27.5 17.5L18.75 22.5V12.5L27.5 17.5Z" fill="#EC455A" style="fill:#EC455A;fill:color(display-p3 0.9255 0.2706 0.3529);fill-opacity:1;"/>
</g>
</g>
</g>
</g>
</g>
</g>
</g>
<defs>
<filter id="filter0_d_0_1" x="-29" y="-33" width="378" height="308" filterUnits="userSpaceOnUse" color-interpolation-filters="sRGB">
<feFlood flood-opacity="0" result="BackgroundImageFix"/>
<feColorMatrix in="SourceAlpha" type="matrix" values="0 0 0 0 0 0 0 0 0 0 0 0 0 0 0 0 0 0 127 0" result="hardAlpha"/>
<feOffset dy="1"/>
<feGaussianBlur stdDeviation="2"/>
<feColorMatrix type="matrix" values="0 0 0 0 0 0 0 0 0 0 0 0 0 0 0 0 0 0 0.1 0"/>
<feBlend mode="normal" in2="BackgroundImageFix" result="effect1_dropShadow_0_1"/>
<feBlend mode="normal" in="SourceGraphic" in2="effect1_dropShadow_0_1" result="shape"/>
</filter>
<clipPath id="clip0_0_1">
<rect width="1440" height="7230" fill="white" style="fill:white;fill:white;fill-opacity:1;" transform="translate(-960 -1451)"/>
</clipPath>
</defs>
</svg>
