<svg width="12" height="13" viewBox="0 0 12 13" fill="none" xmlns="http://www.w3.org/2000/svg">
<path fill-rule="evenodd" clip-rule="evenodd" d="M6.58333 5.83334C6.58333 5.51076 6.322 5.25001 6 5.25001C5.678 5.25001 5.41667 5.51076 5.41667 5.83334V7.58334C5.41667 7.90593 5.678 8.16668 6 8.16668H7.75C8.072 8.16668 8.33333 7.90593 8.33333 7.58334C8.33333 7.26076 8.072 7.00001 7.75 7.00001H6.58333V5.83334ZM6 11.5208C3.82883 11.5208 2.0625 9.75451 2.0625 7.58334C2.0625 5.41218 3.82883 3.64584 6 3.64584C8.17117 3.64584 9.9375 5.41218 9.9375 7.58334C9.9375 9.75451 8.17117 11.5208 6 11.5208ZM6.57981 2.35181L6.57981 2.3518C6.58158 2.34589 6.58333 2.34005 6.58333 2.33334V1.75001H7.16667C7.48867 1.75001 7.75 1.48926 7.75 1.16668C7.75 0.844093 7.48867 0.583344 7.16667 0.583344H4.83333C4.51133 0.583344 4.25 0.844093 4.25 1.16668C4.25 1.48926 4.51133 1.75001 4.83333 1.75001H5.41667V2.33334C5.41667 2.34005 5.41842 2.34589 5.42019 2.3518L5.42019 2.35181C5.42166 2.3567 5.42314 2.36164 5.42367 2.36718C2.79925 2.65534 0.75 4.88368 0.75 7.58334C0.75 10.4784 3.1055 12.8333 6 12.8333C8.8945 12.8333 11.25 10.4784 11.25 7.58334C11.25 4.88368 9.20075 2.65534 6.57633 2.36718C6.57686 2.36164 6.57834 2.3567 6.57981 2.35181Z" fill="#373737" style="fill:#373737;fill:color(display-p3 0.2145 0.2145 0.2145);fill-opacity:1;"/>
</svg>
