<svg width="14" height="14" viewBox="0 0 14 14" fill="none" xmlns="http://www.w3.org/2000/svg">
<path fill-rule="evenodd" clip-rule="evenodd" d="M4.08361 6.41625C4.08361 6.09425 4.34495 5.83292 4.66695 5.83292C4.98895 5.83292 5.25028 6.09425 5.25028 6.41625C5.25028 6.73825 4.98895 6.99959 4.66695 6.99959C4.34495 6.99959 4.08361 6.73825 4.08361 6.41625ZM7.00028 5.83292C6.67828 5.83292 6.41695 6.09425 6.41695 6.41625C6.41695 6.73825 6.67828 6.99959 7.00028 6.99959C7.32228 6.99959 7.58362 6.73825 7.58362 6.41625C7.58362 6.09425 7.32228 5.83292 7.00028 5.83292ZM9.33361 5.83292C9.01161 5.83292 8.75028 6.09425 8.75028 6.41625C8.75028 6.73825 9.01161 6.99959 9.33361 6.99959C9.65561 6.99959 9.91695 6.73825 9.91695 6.41625C9.91695 6.09425 9.65561 5.83292 9.33361 5.83292ZM11.6076 7.17161C11.3119 9.06977 9.78182 10.6442 7.88657 10.9994C6.97132 11.1721 6.03915 11.0735 5.19332 10.7154C4.95357 10.6139 4.70565 10.5625 4.4624 10.5625C4.35157 10.5625 4.2419 10.573 4.13398 10.5946L2.49365 10.9224L2.82207 9.27919C2.8909 8.93794 2.8489 8.57277 2.70132 8.22336C2.34315 7.37752 2.24515 6.44594 2.41723 5.53011C2.77248 3.63486 4.34632 2.10477 6.24507 1.80902C7.7559 1.57394 9.23348 2.04994 10.2998 3.11627C11.3667 4.18319 11.8433 5.66136 11.6076 7.17161ZM11.1252 2.29144C9.79226 0.95911 7.94893 0.364693 6.06535 0.655777C3.6871 1.02678 1.71543 2.94244 1.27035 5.31486C1.05568 6.45703 1.17935 7.62019 1.62676 8.67778C1.68335 8.81253 1.70085 8.93794 1.67868 9.05053L1.17818 11.5519C1.13968 11.7432 1.19976 11.9409 1.33801 12.0786C1.44826 12.1894 1.59701 12.2495 1.75043 12.2495C1.78835 12.2495 1.82626 12.246 1.86476 12.2384L4.36318 11.7385C4.50668 11.7111 4.64551 11.7514 4.73826 11.7899C5.79701 12.2373 6.96018 12.3604 8.10118 12.1463C10.4742 11.7012 12.3898 9.72953 12.7608 7.35128C13.0537 5.46886 12.4581 3.62436 11.1252 2.29144Z" fill="#373737" style="fill:#373737;fill:color(display-p3 0.2145 0.2145 0.2145);fill-opacity:1;"/>
<mask id="mask0_2_6873" style="mask-type:luminance" maskUnits="userSpaceOnUse" x="1" y="0" width="12" height="13">
<path fill-rule="evenodd" clip-rule="evenodd" d="M4.08361 6.41625C4.08361 6.09425 4.34495 5.83292 4.66695 5.83292C4.98895 5.83292 5.25028 6.09425 5.25028 6.41625C5.25028 6.73825 4.98895 6.99959 4.66695 6.99959C4.34495 6.99959 4.08361 6.73825 4.08361 6.41625ZM7.00028 5.83292C6.67828 5.83292 6.41695 6.09425 6.41695 6.41625C6.41695 6.73825 6.67828 6.99959 7.00028 6.99959C7.32228 6.99959 7.58362 6.73825 7.58362 6.41625C7.58362 6.09425 7.32228 5.83292 7.00028 5.83292ZM9.33361 5.83292C9.01161 5.83292 8.75028 6.09425 8.75028 6.41625C8.75028 6.73825 9.01161 6.99959 9.33361 6.99959C9.65561 6.99959 9.91695 6.73825 9.91695 6.41625C9.91695 6.09425 9.65561 5.83292 9.33361 5.83292ZM11.6076 7.17161C11.3119 9.06977 9.78182 10.6442 7.88657 10.9994C6.97132 11.1721 6.03915 11.0735 5.19332 10.7154C4.95357 10.6139 4.70565 10.5625 4.4624 10.5625C4.35157 10.5625 4.2419 10.573 4.13398 10.5946L2.49365 10.9224L2.82207 9.27919C2.8909 8.93794 2.8489 8.57277 2.70132 8.22336C2.34315 7.37752 2.24515 6.44594 2.41723 5.53011C2.77248 3.63486 4.34632 2.10477 6.24507 1.80902C7.7559 1.57394 9.23348 2.04994 10.2998 3.11627C11.3667 4.18319 11.8433 5.66136 11.6076 7.17161ZM11.1252 2.29144C9.79226 0.95911 7.94893 0.364693 6.06535 0.655777C3.6871 1.02678 1.71543 2.94244 1.27035 5.31486C1.05568 6.45703 1.17935 7.62019 1.62676 8.67778C1.68335 8.81253 1.70085 8.93794 1.67868 9.05053L1.17818 11.5519C1.13968 11.7432 1.19976 11.9409 1.33801 12.0786C1.44826 12.1894 1.59701 12.2495 1.75043 12.2495C1.78835 12.2495 1.82626 12.246 1.86476 12.2384L4.36318 11.7385C4.50668 11.7111 4.64551 11.7514 4.73826 11.7899C5.79701 12.2373 6.96018 12.3604 8.10118 12.1463C10.4742 11.7012 12.3898 9.72953 12.7608 7.35128C13.0537 5.46886 12.4581 3.62436 11.1252 2.29144Z" fill="white" style="fill:white;fill:white;fill-opacity:1;"/>
</mask>
<g mask="url(#mask0_2_6873)">
<rect width="14" height="14" fill="#373737" style="fill:#373737;fill:color(display-p3 0.2145 0.2145 0.2145);fill-opacity:1;"/>
</g>
</svg>
